<?xml version="1.0" encoding="UTF-8"?><svg id="_レイヤー_2" xmlns="http://www.w3.org/2000/svg" viewBox="0 0 285.77 233.69"><g id="_レイヤー_1-2"><path d="m138.39.05c.4,0,.95-.1,1.35-.02.25.05.29.06.46.32.43.65.58,1.11,1.13,1.64,1.73,1.66,3.07,4.23,4.67,6.17.98,1.18,1.73,2.47,2.55,3.88.13.22.4.71.57.87.13.12.35.05.5.12.13.06.21.27.39.27.08.9.17,1.03.77,1.15.04.68.3.8.7.82.18,0,.42-.1.59,0,.35.24.18.42.27.87.09.42.36.84.54,1.2.23.48.32.83.43,1.36.32,1.52.77,1.74,1.82,1.73.37,0,.94-.1,1.09.56.1.46.03,1.01.17,1.46.13.4.37.74.53,1.14.25.62.72.83,1.02,1.43.16.32.28.59.45.87.1.17.22.23.29.44.09.28,0,.56.12.85.15.34.49.52.69.8.73,1.04,1.56,2.01,2.25,3.13.22.36.39.75.62,1.08.09.13.49.47.55.62.18.45-.11,1.13.07,1.6.07.18.24.34.32.52.09.19.14.47.21.69l122.27,198.05H0L138.39.05Z"/></g></svg>