<?xml version="1.0" encoding="UTF-8"?><svg id="_レイヤー_2" xmlns="http://www.w3.org/2000/svg" viewBox="0 0 66.65 189.59"><defs><style>.cls-1{fill:none;stroke:#3458eb;stroke-miterlimit:10;stroke-width:.6px;}</style></defs><g id="_レイヤー_1-2"><path class="cls-1" d="m10,0c0,2.23-.02,4.46,0,6.69,0,.99.08,1.62-.28,2.44-.24.55-.68,1.04-.98,1.52-1.42,2.3-3.33,4.04-4.55,6.63-.29.61-1.01,1.65-1.14,2.39-.08.45.03,1.19.03,1.66,0,.73-.1,1.54.02,2.25.3,1.84,1.89,3.9,2.7,5.13,1.39,2.11,2.71,3.75,4.51,4.9.94.6,1.8,1.02,2.71,1.79.4.34.8.4,1.19.68.45.32.6.93,1.16.95.45,2.49-1.42,4.6-1.17,7.13.12,1.15.32.96,1.17,1.19s1.72.5,2.58.95c.9.46,1.79.84,2.69,1.23.4.17,1.23.4,1.52.93.51.94.23,4.63-.13,5.58-.71,1.84-1.97,4-2.13,6.2-.07,1.04-.09,2.42-.02,3.45.19,3.11,2.89,4.52,4.42,5.49,3.19,2.02,6.52,2.55,9.84,3.78,1.16.43,2.3,1.01,3.47,1.33,1.05.29,1.94.93,2.96,1.41,1.93.9,3.46,3.49,4.99,5.44,1.22,1.55,1.84,3.26,2.68,5.27.21.5.47.8.55,1.39.1.71-.02,1.69,0,2.42.05,2.64-1.33,3.5-1.76,5.78-.38,2.02.47,2.05,1.45,2.61.7.4,1.79,1.94,2.04,3.13.12.58-.04,1.16.05,1.71.13.84.19.34.55.8.62.8.36,1.79.1,2.68.87.21,2.4.24,3,1.42.35.68.08.78.25,1.58.14.68.66.83,1.04,1.15,1.03.85,2.23,1.54,3.2,2.55.59.61.81,1.68.9,2.76.24,2.82-.45,6.13.05,8.88.14.77.5,1.36.83,1.92s.64,1.37.98,1.84c.27.38,1.3,1.09,1.67,1.14l.06.39c.81-.15,2.86.23,3.08,1.71.18,1.27-.02,3.09-.02,4.39,0,1.41-9.61,2.99-9.73,4.39-.06.67-.24.83-.33,1.42s.08,1.26-.03,1.89c-1.12.09-.78,1.26-.86,2.53-.05.71.03.6-.29.98-.34.41-1.17.7-1.58.82-1.34.41-2.47,1.39-3.77,2.03-1.79.88-3.58,1.73-5.36,2.63-1.23.62-2.42,1.4-3.64,2.03-.48.24-1.07.35-1.46.88-.54.73-.36,1.76-.36,2.8,0,.51.1,1.22.03,1.7-.18,1.26-.83,1.35-1.58,1.75-1.8.97-3.61,1.96-5.42,2.79-.37.17-.76.23-1.11.51-.46.36-.39.76-.74,1.25-.29.4-.78.46-1.17.75-.35.26-.73.63-1.05.96-.61.61-.73.75-.86,1.73-.04.29.02.63-.01.93-.03.28-.21.3-.25.57-.1.71.09.89-.3,1.21-.28.22-1.12-.04-1.4-.03-1.1,0-1.91,0-2.9.79-.66.52-1.04,1.33-1.65,1.89-.44.41-.98.44-1.41.84-.49.45-.93.92-1.44,1.35-1.89,1.6-3.92,2.72-5.93,3.76-1,.52-1.87,1.19-2.89,1.58s-2.06,1.17-2.97,1.95c-.97.83-2,1.81-3.03,2.4-.52.3-1.03.61-1.54.98-.3.22-.74.68-1.08.53"/></g></svg>